<?xml version="1.0" standalone="no"?>
<!DOCTYPE svg PUBLIC "-//W3C//DTD SVG 20010904//EN"
 "http://www.w3.org/TR/2001/REC-SVG-20010904/DTD/svg10.dtd">
<svg version="1.0" xmlns="http://www.w3.org/2000/svg"
 width="512.000000pt" height="512.000000pt" viewBox="0 0 512.000000 512.000000"
 preserveAspectRatio="xMidYMid meet">
<metadata>
Created by potrace 1.11, written by Peter Selinger 2001-2013
</metadata>
<g transform="translate(0.000000,512.000000) scale(0.100000,-0.100000)"
fill="#000000" stroke="none">
<path d="M428 3678 c-9 -60 -4 -63 94 -65 49 -1 105 -7 124 -13 68 -23 64 28
64 -842 0 -558 -3 -794 -11 -812 -15 -32 -69 -47 -181 -49 -81 -1 -88 -3 -89
-22 0 -11 -2 -29 -3 -40 -2 -20 3 -20 407 -19 l410 0 2 37 c0 20 -1 38 -4 38
-4 1 -28 3 -56 4 -180 8 -212 19 -221 75 -7 44 -11 710 -4 711 3 1 131 2 285
4 306 2 359 9 479 64 265 120 389 355 306 578 -53 141 -175 256 -340 320 -120
47 -111 47 -697 50 l-561 4 -4 -23z m1015 -72 c169 -23 273 -108 311 -251 19
-72 19 -278 1 -340 -41 -135 -131 -214 -278 -245 -54 -11 -471 -21 -509 -12
-17 4 -18 32 -18 406 0 323 3 406 14 421 8 11 31 21 57 24 57 8 360 5 422 -3z"/>
<path d="M2924 3656 l1 -40 80 -3 c97 -4 143 -16 180 -45 21 -17 420 -601 445
-653 3 -5 29 -45 58 -88 l54 -79 -93 -136 c-52 -76 -155 -229 -231 -342 -76
-113 -157 -225 -181 -250 -67 -71 -180 -117 -299 -122 -49 -2 -50 -3 -50 -53
0 -8 0 -19 1 -23 0 -4 150 -8 331 -7 l331 0 -3 40 c-3 37 -5 40 -39 46 -78 12
-151 87 -134 138 3 11 60 100 126 198 67 98 159 235 207 306 l85 127 18 -27
c10 -16 24 -35 30 -44 84 -117 399 -608 399 -621 0 -38 -74 -78 -145 -78 -29
0 -30 -2 -30 -42 l0 -42 383 -1 383 0 -3 40 -3 40 -78 2 c-93 3 -145 16 -181
44 -23 18 -137 187 -572 845 -30 45 -54 86 -54 92 0 6 42 73 94 149 52 76 143
209 203 297 117 174 167 221 265 256 63 22 96 28 160 29 50 1 57 10 50 61 l-4
25 -329 0 -329 0 0 -41 c0 -26 5 -41 13 -41 85 -4 156 -59 157 -122 0 -27 -29
-78 -152 -260 -83 -124 -159 -236 -169 -249 l-18 -23 -173 258 c-95 142 -179
268 -186 281 -30 53 16 96 117 111 45 6 46 7 48 46 l3 40 -384 0 -384 0 2 -39z"/>
<path d="M1270 2455 l0 -41 73 -1 c90 -2 134 -10 170 -31 19 -12 83 -105 194
-287 346 -563 430 -701 440 -720 15 -31 10 -604 -5 -632 -16 -29 -70 -43 -181
-46 l-91 -2 0 -40 0 -40 405 0 406 0 -3 39 -3 40 -90 3 c-111 4 -161 17 -177
46 -9 16 -12 106 -13 322 l-1 300 79 130 c44 72 91 148 105 170 52 82 73 116
218 354 82 135 168 264 191 287 65 65 160 103 261 106 33 1 40 14 34 58 l-4
25 -293 0 -294 1 1 -38 c0 -32 4 -39 24 -43 13 -3 36 -7 50 -11 41 -8 84 -57
84 -94 0 -41 -1 -43 -247 -442 -117 -191 -216 -354 -219 -363 -4 -8 -10 -15
-14 -15 -4 0 -61 87 -126 193 -64 105 -132 215 -149 242 -75 118 -234 382
-240 398 -4 9 -4 28 -1 42 7 28 49 43 134 46 l52 3 0 40 0 41 -385 0 -385 0 0
-40z"/>
</g>
</svg>
